<svg width="24" height="24" viewBox="0 0 24 24" fill="none" xmlns="http://www.w3.org/2000/svg">
<rect width="24" height="24" rx="12" fill="white"/>
<path d="M12 0C5.38293 0 0 5.38293 0 12C0 18.6171 5.38293 24 12 24C18.6171 24 24 18.6171 24 12C24 5.38293 18.6171 0 12 0ZM18.082 9.45703L11.582 15.9569C11.387 16.1519 11.131 16.2501 10.875 16.2501C10.619 16.2501 10.363 16.1519 10.168 15.9569L6.91809 12.707C6.52698 12.316 6.52698 11.684 6.91809 11.293C7.30902 10.9019 7.94092 10.9019 8.33203 11.293L10.875 13.836L16.6681 8.04309C17.059 7.65198 17.6909 7.65198 18.082 8.04309C18.473 8.43402 18.473 9.06592 18.082 9.45703V9.45703Z" fill="#5DDD20"/>
</svg>
